<svg width="28" height="44" viewBox="0 0 28 44" fill="none" xmlns="http://www.w3.org/2000/svg">
    <path d="M1.10109 27.4973L12.9716 37.6415C13.2559 37.9079 13.6299 38.056 14.0184 38.056C14.4069 38.056 14.7809 37.9079 15.0652 37.6415L26.9419 27.4973C27.5899 26.9445 27.8585 25.7915 27.8585 24.6859L27.9897 30.7605C27.9897 31.8661 27.5899 32.8892 26.9419 33.4419L15.0652 43.5841C14.7814 43.8514 14.4072 44 14.0184 44C13.6296 44 13.2554 43.8514 12.9716 43.5841L1.09289 33.4419C0.444923 32.8892 0.0471191 31.8661 0.0471191 30.7605V24.8159C0.0532707 25.9235 0.463377 26.9445 1.10109 27.4973Z" fill="url(#paint0_linear_2305_27857)"/>
    <path d="M1.04585 16.0556L12.9246 26.1978C13.2084 26.465 13.5826 26.6137 13.9714 26.6137C14.3601 26.6137 14.7344 26.465 15.0182 26.1978L26.8948 16.0556C27.5428 15.5028 27.9427 14.4797 27.9427 13.3741V19.3188C27.9427 20.4243 27.5428 21.4474 26.8948 22.0002L15.0223 32.1424C14.738 32.4087 14.364 32.5568 13.9755 32.5568C13.587 32.5568 13.2129 32.4087 12.9287 32.1424L1.04995 22.0002C0.404036 21.4474 0.00418164 20.4243 0.00418164 19.3188V13.3741C8.05762e-05 14.4797 0.399934 15.5028 1.04585 16.0556Z" fill="#ADADAD"/>
    <path d="M26.8948 28.3347L15.0222 18.1926C14.7379 17.9262 14.3639 17.7781 13.9754 17.7781C13.5869 17.7781 13.2129 17.9262 12.9286 18.1926L1.04577 28.3347C0.399852 28.8875 0.0389575 29.9106 0.0389575 31.0162L0 25.0757C0 23.968 0.399852 22.947 1.04577 22.3942L12.9245 12.25C13.2088 11.9837 13.5828 11.8356 13.9713 11.8356C14.3598 11.8356 14.7338 11.9837 15.0181 12.25L26.8948 22.3942C27.5427 22.947 27.9426 23.968 27.9426 25.0757V31.0203C27.9405 29.9106 27.5427 28.8875 26.8948 28.3347Z" fill="#0E131E"/>
    <path d="M26.8948 16.5012L15.0222 6.35905C14.738 6.0927 14.3639 5.94462 13.9754 5.94462C13.587 5.94462 13.2129 6.0927 12.9286 6.35905L1.04992 16.5012C0.404005 17.0561 0.00415039 18.0771 0.00415039 19.1827V13.2401C0.00415039 12.1345 0.404005 11.1114 1.04992 10.5586L12.9286 0.414435C13.2129 0.148089 13.587 0 13.9754 0C14.3639 0 14.738 0.148089 15.0222 0.414435L26.8989 10.5586C27.5469 11.1114 27.9467 12.1345 27.9467 13.2401L28.0001 19.1847C27.996 18.0771 27.5428 17.0561 26.8948 16.5012Z" fill="url(#paint1_linear_2305_27857)"/>
    <defs>
        <linearGradient id="paint0_linear_2305_27857" x1="14.0256" y1="44.0008" x2="14.0256" y2="24.6859" gradientUnits="userSpaceOnUse">
            <stop stop-color="#650BDB"/>
            <stop offset="0.18" stop-color="#640EDB"/>
            <stop offset="0.31" stop-color="#6018DD"/>
            <stop offset="0.43" stop-color="#5928DF"/>
            <stop offset="0.54" stop-color="#4F3FE3"/>
            <stop offset="0.65" stop-color="#435DE7"/>
            <stop offset="0.75" stop-color="#3482ED"/>
            <stop offset="0.85" stop-color="#22ADF3"/>
            <stop offset="0.94" stop-color="#0EDEFA"/>
            <stop offset="1" stop-color="#00FFFF"/>
        </linearGradient>
        <linearGradient id="paint1_linear_2305_27857" x1="13.999" y1="-0.000163252" x2="13.999" y2="19.1847" gradientUnits="userSpaceOnUse">
            <stop stop-color="#17BBB0"/>
            <stop offset="0.48" stop-color="#1FCC79"/>
            <stop offset="1" stop-color="#FEF163"/>
        </linearGradient>
    </defs>
</svg>
